<svg id="visual" viewBox="0 0 960 160" width="960" height="160" xmlns="http://www.w3.org/2000/svg" xmlns:xlink="http://www.w3.org/1999/xlink" version="1.1"><path d="M0 55L13.3 53.7C26.7 52.3 53.3 49.7 80 49.7C106.7 49.7 133.3 52.3 160 51C186.7 49.7 213.3 44.3 240 42C266.7 39.7 293.3 40.3 320 43.3C346.7 46.3 373.3 51.7 400 52.8C426.7 54 453.3 51 480 48.7C506.7 46.3 533.3 44.7 560 45.5C586.7 46.3 613.3 49.7 640 49.2C666.7 48.7 693.3 44.3 720 43.7C746.7 43 773.3 46 800 47C826.7 48 853.3 47 880 46.8C906.7 46.7 933.3 47.3 946.7 47.7L960 48L960 161L946.7 161C933.3 161 906.7 161 880 161C853.3 161 826.7 161 800 161C773.3 161 746.7 161 720 161C693.3 161 666.7 161 640 161C613.3 161 586.7 161 560 161C533.3 161 506.7 161 480 161C453.3 161 426.7 161 400 161C373.3 161 346.7 161 320 161C293.3 161 266.7 161 240 161C213.3 161 186.7 161 160 161C133.3 161 106.7 161 80 161C53.3 161 26.7 161 13.3 161L0 161Z" fill="#4f3f84"></path><path d="M0 67L13.3 64.8C26.7 62.7 53.3 58.3 80 60.8C106.7 63.3 133.3 72.7 160 77.2C186.7 81.7 213.3 81.3 240 76.5C266.7 71.7 293.3 62.3 320 60.7C346.7 59 373.3 65 400 68C426.7 71 453.3 71 480 69.7C506.7 68.3 533.3 65.7 560 65.2C586.7 64.7 613.3 66.3 640 69.8C666.7 73.3 693.3 78.7 720 79C746.7 79.3 773.3 74.7 800 72.5C826.7 70.3 853.3 70.7 880 70.7C906.7 70.7 933.3 70.3 946.7 70.2L960 70L960 161L946.7 161C933.3 161 906.7 161 880 161C853.3 161 826.7 161 800 161C773.3 161 746.7 161 720 161C693.3 161 666.7 161 640 161C613.3 161 586.7 161 560 161C533.3 161 506.7 161 480 161C453.3 161 426.7 161 400 161C373.3 161 346.7 161 320 161C293.3 161 266.7 161 240 161C213.3 161 186.7 161 160 161C133.3 161 106.7 161 80 161C53.3 161 26.7 161 13.3 161L0 161Z" fill="#833d8a"></path><path d="M0 72L13.3 75.7C26.7 79.3 53.3 86.7 80 87.2C106.7 87.7 133.3 81.3 160 81.8C186.7 82.3 213.3 89.7 240 92C266.7 94.3 293.3 91.7 320 88.5C346.7 85.3 373.3 81.7 400 80.3C426.7 79 453.3 80 480 80.2C506.7 80.3 533.3 79.7 560 81.8C586.7 84 613.3 89 640 88.5C666.7 88 693.3 82 720 79.5C746.7 77 773.3 78 800 78.2C826.7 78.3 853.3 77.7 880 79.3C906.7 81 933.3 85 946.7 87L960 89L960 161L946.7 161C933.3 161 906.7 161 880 161C853.3 161 826.7 161 800 161C773.3 161 746.7 161 720 161C693.3 161 666.7 161 640 161C613.3 161 586.7 161 560 161C533.3 161 506.7 161 480 161C453.3 161 426.7 161 400 161C373.3 161 346.7 161 320 161C293.3 161 266.7 161 240 161C213.3 161 186.7 161 160 161C133.3 161 106.7 161 80 161C53.3 161 26.7 161 13.3 161L0 161Z" fill="#b33683"></path><path d="M0 99L13.3 98.8C26.7 98.7 53.3 98.3 80 100.8C106.7 103.3 133.3 108.7 160 111.5C186.7 114.3 213.3 114.7 240 111C266.7 107.3 293.3 99.7 320 98.7C346.7 97.7 373.3 103.3 400 104.7C426.7 106 453.3 103 480 103C506.7 103 533.3 106 560 106C586.7 106 613.3 103 640 100.2C666.7 97.3 693.3 94.7 720 96.8C746.7 99 773.3 106 800 109.2C826.7 112.3 853.3 111.7 880 112.2C906.7 112.7 933.3 114.3 946.7 115.2L960 116L960 161L946.7 161C933.3 161 906.7 161 880 161C853.3 161 826.7 161 800 161C773.3 161 746.7 161 720 161C693.3 161 666.7 161 640 161C613.3 161 586.7 161 560 161C533.3 161 506.7 161 480 161C453.3 161 426.7 161 400 161C373.3 161 346.7 161 320 161C293.3 161 266.7 161 240 161C213.3 161 186.7 161 160 161C133.3 161 106.7 161 80 161C53.3 161 26.7 161 13.3 161L0 161Z" fill="#da346f"></path><path d="M0 110L13.3 113.5C26.7 117 53.3 124 80 126.3C106.7 128.7 133.3 126.3 160 123.8C186.7 121.3 213.3 118.7 240 118.2C266.7 117.7 293.3 119.3 320 120.8C346.7 122.3 373.3 123.7 400 123.3C426.7 123 453.3 121 480 122C506.7 123 533.3 127 560 126.3C586.7 125.7 613.3 120.3 640 117.5C666.7 114.7 693.3 114.3 720 113.7C746.7 113 773.3 112 800 112.3C826.7 112.7 853.3 114.3 880 116.8C906.7 119.3 933.3 122.7 946.7 124.3L960 126L960 161L946.7 161C933.3 161 906.7 161 880 161C853.3 161 826.7 161 800 161C773.3 161 746.7 161 720 161C693.3 161 666.7 161 640 161C613.3 161 586.7 161 560 161C533.3 161 506.7 161 480 161C453.3 161 426.7 161 400 161C373.3 161 346.7 161 320 161C293.3 161 266.7 161 240 161C213.3 161 186.7 161 160 161C133.3 161 106.7 161 80 161C53.3 161 26.7 161 13.3 161L0 161Z" fill="#f54551"></path><path d="M0 138L13.3 139.5C26.7 141 53.3 144 80 144.5C106.7 145 133.3 143 160 141.2C186.7 139.3 213.3 137.7 240 136.3C266.7 135 293.3 134 320 136C346.7 138 373.3 143 400 142.7C426.7 142.3 453.3 136.7 480 133.5C506.7 130.3 533.3 129.7 560 131.7C586.7 133.7 613.3 138.3 640 141.5C666.7 144.7 693.3 146.3 720 146.7C746.7 147 773.3 146 800 143.3C826.7 140.7 853.3 136.3 880 135.3C906.7 134.3 933.3 136.7 946.7 137.8L960 139L960 161L946.7 161C933.3 161 906.7 161 880 161C853.3 161 826.7 161 800 161C773.3 161 746.7 161 720 161C693.3 161 666.7 161 640 161C613.3 161 586.7 161 560 161C533.3 161 506.7 161 480 161C453.3 161 426.7 161 400 161C373.3 161 346.7 161 320 161C293.3 161 266.7 161 240 161C213.3 161 186.7 161 160 161C133.3 161 106.7 161 80 161C53.3 161 26.7 161 13.3 161L0 161Z" fill="#ff662a"></path></svg>